<?xml version="1.0" encoding="utf-8"?>
<!-- Generator: Adobe Illustrator 25.3.1, SVG Export Plug-In . SVG Version: 6.00 Build 0)  -->
<svg version="1.1" id="Layer_1" xmlns="http://www.w3.org/2000/svg" xmlns:xlink="http://www.w3.org/1999/xlink" x="0px" y="0px"
	 viewBox="0 0 2909.7 894.7" style="enable-background:new 0 0 2909.7 894.7;" xml:space="preserve">
<style type="text/css">
	.st0{fill:#3A79FF;}
	.st1{fill:#092187;}
	.st2{fill:#6948B4;}
	.st3{fill:#FFFFFF;}
	.st4{fill:#1D1D1B;}
	.st5{fill:#FFFFFF;stroke:#1D1D1B;stroke-width:0.5;stroke-miterlimit:10;}
	.st6{fill:#FFFFFF;stroke:#3A79FF;stroke-width:0.5;stroke-miterlimit:10;}
	.st7{fill:#FFFFFF;stroke:#092187;stroke-width:0.5;stroke-miterlimit:10;}
	.st8{fill:#297854;}
	.st9{fill:#F4EDD9;}
	.st10{fill:none;stroke:#000000;stroke-width:1.891;stroke-miterlimit:10;}
	.st11{fill:url(#SVGID_1_);}
	.st12{fill:none;stroke:#1D1D1B;stroke-width:1.891;stroke-miterlimit:10;}
	.st13{fill:none;stroke:#000000;stroke-width:1.9171;stroke-miterlimit:10;}
	.st14{fill:none;stroke:#000000;stroke-width:1.9185;stroke-miterlimit:10;}
	.st15{fill:#EAEAEA;}
	.st16{fill:none;stroke:#092187;stroke-width:2.4675;stroke-miterlimit:10;}
	.st17{fill:none;stroke:#092187;stroke-width:1.8125;stroke-miterlimit:10;}
	.st18{fill:url(#SVGID_2_);}
	.st19{fill:none;stroke:#000000;stroke-width:0.5;stroke-miterlimit:10;}
	.st20{fill:none;stroke:#092187;stroke-width:0.5;stroke-miterlimit:10;}
	.st21{fill:none;stroke:#000000;stroke-width:0.5698;stroke-miterlimit:10;}
	.st22{fill:#00D5D7;}
	.st23{fill:url(#SVGID_3_);}
	.st24{fill:url(#SVGID_4_);}
	.st25{fill:none;stroke:#FF5757;stroke-width:0.5;stroke-miterlimit:10;}
</style>
<g>
	<g>
		<path class="st1" d="M752.6,323.4h56.7v229h-56.7V323.4z"/>
		<path class="st1" d="M849.9,462.8c0-58.1,34.3-87.9,85.5-87.9s85.5,29.4,85.5,87.9v89.7h-52.5v-89.7c0-27.3-13.3-38.9-32.9-38.9
			c-19.6,0-32.9,11.6-32.9,38.9v89.7h-52.5V462.8z"/>
		<path class="st1" d="M1055.1,484.1v-166h52.5v61.3h81.9v47.3h-81.9v57.4c0,18.2,8.4,23.8,20,23.8c11.6,0,20-5.6,20-23.8v-5.3h52.5
			v5.3c0,49.4-29.4,72.8-72.5,72.8C1084.6,557,1055.1,533.5,1055.1,484.1z"/>
		<path class="st1" d="M1218.3,465.9c0-52.5,38.5-91.1,93.2-91.1c54.6,0,92.1,38.5,92.1,91.1v14.7H1273
			c4.2,20.3,19.6,29.4,38.5,29.4c15.1,0,26.3-3.2,32.9-12.6h54.3c-11.2,35.7-44.1,59.5-87.2,59.5
			C1256.9,557,1218.3,518.4,1218.3,465.9z M1349.7,447.3c-6-17.9-20-25.6-38.2-25.6c-18.2,0-32.2,8.1-37.5,25.6H1349.7z"/>
		<path class="st1" d="M1436.5,303.7h52.5v248.7h-52.5V303.7z"/>
		<path class="st1" d="M1534.6,303.7h52.5v248.7h-52.5V303.7z"/>
		<path class="st1" d="M1625.3,330c0-19.3,14.4-33.6,33.6-33.6s33.6,14.4,33.6,33.6c0,19.3-14.4,33.6-33.6,33.6
			S1625.3,349.3,1625.3,330z M1632.6,379.4h52.5v173h-52.5V379.4z"/>
		<path class="st0" d="M1731.4,323.4h90c62.3,0,90,34,90,80.6s-27.7,80.9-90,80.9h-33.3v67.6h-56.7V323.4z M1822.4,432.3
			c24.2,0,31.5-11.9,31.5-28.4c0-16.1-7.4-28-31.5-28h-34.3v56.4H1822.4z"/>
		<path class="st0" d="M1935.9,454c0-53.9,31.5-79.1,77.8-79.1s77.4,24.9,77.8,79.5v1.1h-52.5V454c0-23.1-10.5-30.1-25.2-30.1
			s-25.2,7-25.2,30.1v98.4h-52.5V454z"/>
		<path class="st0" d="M2105.8,465.9c0-52.5,38.5-91.1,93.2-91.1c54.6,0,93.2,38.5,93.2,91.1s-38.5,91.1-93.2,91.1
			C2144.3,557,2105.8,518.4,2105.8,465.9z M2238.8,465.9c0-24.9-16.1-42-39.9-42c-23.8,0-39.9,17.2-39.9,42s16.1,42,39.9,42
			C2222.7,507.9,2238.8,490.8,2238.8,465.9z"/>
		<path class="st0" d="M2299.1,379.4h56.4l38.2,122.9l38.2-122.9h55l-62,173h-63.7L2299.1,379.4z"/>
		<path class="st0" d="M2493.8,465.9c0-52.5,38.5-91.1,93.2-91.1c54.6,0,92.1,38.5,92.1,91.1v14.7h-130.6
			c4.2,20.3,19.6,29.4,38.5,29.4c15.1,0,26.3-3.2,32.9-12.6h54.3c-11.2,35.7-44.1,59.5-87.2,59.5
			C2532.3,557,2493.8,518.4,2493.8,465.9z M2625.1,447.3c-6-17.9-20-25.6-38.2-25.6c-18.2,0-32.2,8.1-37.5,25.6H2625.1z"/>
	</g>
	<g>
		<g>
			<path class="st1" d="M661,447.3c0,17-6.9,32.3-18,43.5v0c-2.1,2.1-4.4,4-6.7,5.8c-10.3,7.7-23,12.2-36.8,12.2
				c-34,0-61.5-27.6-61.5-61.5c0-50.9-41.2-92.1-92.1-92.1c-50.9,0-92.1,41.2-92.1,92.1c0,50.9,41.3,92.1,92.1,92.1
				c34,0,61.5,27.5,61.5,61.5v0c0,33.9-27.5,61.5-61.5,61.5c-34,0-61.5-27.6-61.5-61.5v0c0-25.4-10.3-48.5-27-65.1
				c-16.6-16.6-39.7-26.9-65.1-26.9c-17,0-32.4-6.9-43.5-18c-11.2-11.2-18-26.6-18-43.5c0-17,6.9-32.4,18-43.5
				c11.1-11.2,26.5-18,43.5-18c25.4,0,48.5-10.3,65.1-27c16.7-16.6,27-39.7,27-65.1c0-17,6.9-32.4,18-43.5
				c11.1-11.1,26.5-18,43.5-18c17,0,32.4,6.9,43.5,18c11.1,11.2,18,26.6,18,43.5c0,50.9,41.3,92.1,92.1,92.1c9.3,0,18.1,2.1,26,5.8
				c3.2,1.5,6.2,3.2,9,5.2c1.5,1,2.8,2.1,4.2,3.1C652.3,411.2,661,428.2,661,447.3z"/>
		</g>
		<g>
			<path class="st0" d="M507.3,447.3c0,33.9-27.5,61.5-61.5,61.5c-34,0-61.5-27.6-61.5-61.5c0-34,27.5-61.5,61.5-61.5
				C479.8,385.8,507.3,413.4,507.3,447.3z"/>
		</g>
	</g>
</g>
</svg>
